REM GENRE Anime
REM DATE 2012
TITLE "夏色キセキ 3【完全生b限定版】特典CD"
FILE "CDImage.flac" WAVE
  TRACK 01 AUDIO
    TITLE "初想いDay"
    PERFORMER "花木香(跛梢), h凛子(N崎凵)"
    INDEX 01 00:00:00
  TRACK 02 AUDIO
    TITLE "空wぶクジラ"
    PERFORMER "h凛子(N崎凵)"
    INDEX 01 04:13:53
  TRACK 03 AUDIO
    TITLE "初想いDay -カラオケver.-"
    PERFORMER "rino"
    INDEX 01 06:40:30
  TRACK 04 AUDIO
    TITLE "空wぶクジラ -カラオケver.-"
    PERFORMER "多_尾伴内"
    INDEX 01 10:54:08
